<svg width="24" height="24" viewBox="0 0 24 24" fill="none" xmlns="http://www.w3.org/2000/svg">
<mask id="mask0_3_46" style="mask-type:alpha" maskUnits="userSpaceOnUse" x="0" y="0" width="24" height="24">
<rect x="0.420227" width="23.2927" height="23.2927" fill="#D9D9D9"/>
</mask>
<g mask="url(#mask0_3_46)">
</g>
<g clip-path="url(#clip0_3_46)">
<path fill-rule="evenodd" clip-rule="evenodd" d="M12.3652 0C6.09557 0 1.01747 5.0781 1.01747 11.3477C1.01747 16.3691 4.26576 20.6103 8.77647 22.1139C9.34386 22.2132 9.55663 21.8727 9.55663 21.5748C9.55663 21.3053 9.54244 20.4117 9.54244 19.4613C6.69133 19.9862 5.95373 18.7663 5.72677 18.128C5.59911 17.8017 5.04591 16.7946 4.56363 16.5251C4.16646 16.3123 3.59908 15.7875 4.54945 15.7733C5.44308 15.7591 6.08139 16.596 6.29416 16.9365C7.31545 18.6528 8.94669 18.1705 9.59918 17.8727C9.69847 17.1351 9.99635 16.6386 10.3226 16.3549C7.79773 16.0712 5.15939 15.0925 5.15939 10.752C5.15939 9.5179 5.59911 8.4966 6.32253 7.70226C6.20905 7.41857 5.81188 6.25543 6.43601 4.69512C6.43601 4.69512 7.38638 4.39724 9.55663 5.85826C10.4644 5.60294 11.429 5.47527 12.3936 5.47527C13.3581 5.47527 14.3227 5.60294 15.2305 5.85826C17.4007 4.38306 18.3511 4.69512 18.3511 4.69512C18.9752 6.25543 18.5781 7.41857 18.4646 7.70226C19.188 8.4966 19.6277 9.50371 19.6277 10.752C19.6277 15.1066 16.9752 16.0712 14.4503 16.3549C14.8617 16.7095 15.2163 17.3904 15.2163 18.4542C15.2163 19.972 15.2021 21.1919 15.2021 21.5748C15.2021 21.8727 15.4149 22.2273 15.9823 22.1139C18.235 21.3533 20.1924 19.9055 21.5792 17.9742C22.966 16.0429 23.7122 13.7253 23.7129 11.3477C23.7129 5.0781 18.6348 0 12.3652 0Z" fill="#AAAAAA"/>
</g>
<defs>
<clipPath id="clip0_3_46">
<rect width="22.6954" height="22.6954" fill="white" transform="translate(1.01747)"/>
</clipPath>
</defs>
</svg>
