<svg width="24" height="24" viewBox="0 0 24 24" fill="none" xmlns="http://www.w3.org/2000/svg">
<path fill-rule="evenodd" clip-rule="evenodd" d="M7.26661 0.665331C8.47669 0.609624 8.86251 0.597244 11.945 0.597244C15.0274 0.597244 15.4132 0.610655 16.6223 0.665331C17.8313 0.720006 18.6566 0.912917 19.3787 1.19248C20.1349 1.47824 20.8209 1.92493 21.3883 2.50263C21.966 3.06898 22.4117 3.75397 22.6964 4.51118C22.977 5.2333 23.1689 6.05859 23.2246 7.26558C23.2803 8.47772 23.2927 8.86354 23.2927 11.945C23.2927 15.0274 23.2793 15.4132 23.2246 16.6233C23.1699 17.8303 22.977 18.6556 22.6964 19.3777C22.4117 20.135 21.9653 20.8211 21.3883 21.3883C20.8209 21.966 20.1349 22.4117 19.3787 22.6964C18.6566 22.977 17.8313 23.1689 16.6243 23.2246C15.4132 23.2803 15.0274 23.2927 11.945 23.2927C8.86251 23.2927 8.47669 23.2793 7.26661 23.2246C6.05962 23.1699 5.23433 22.977 4.51221 22.6964C3.75492 22.4116 3.0688 21.9653 2.5016 21.3883C1.92429 20.8216 1.47753 20.1358 1.19248 19.3787C0.912917 18.6566 0.721038 17.8313 0.665331 16.6243C0.609624 15.4122 0.597244 15.0264 0.597244 11.945C0.597244 8.86251 0.610655 8.47669 0.665331 7.26764C0.720006 6.05859 0.912917 5.2333 1.19248 4.51118C1.47795 3.75406 1.92505 3.06827 2.50263 2.5016C3.06902 1.92441 3.75446 1.47767 4.51118 1.19248C5.2333 0.912917 6.05859 0.721038 7.26558 0.665331H7.26661ZM16.5305 2.70792C15.3338 2.65324 14.9748 2.6419 11.945 2.6419C8.91512 2.6419 8.55612 2.65324 7.35945 2.70792C6.25253 2.75847 5.65214 2.94313 5.25187 3.0989C4.72266 3.30522 4.34405 3.54971 3.94688 3.94688C3.57039 4.31316 3.28065 4.75905 3.0989 5.25187C2.94313 5.65214 2.75847 6.25253 2.70792 7.35945C2.65324 8.55612 2.6419 8.91512 2.6419 11.945C2.6419 14.9748 2.65324 15.3338 2.70792 16.5305C2.75847 17.6374 2.94313 18.2378 3.0989 18.6381C3.28046 19.1301 3.57035 19.5768 3.94688 19.943C4.31311 20.3196 4.75979 20.6095 5.25187 20.791C5.65214 20.9468 6.25253 21.1315 7.35945 21.182C8.55612 21.2367 8.91409 21.248 11.945 21.248C14.9758 21.248 15.3338 21.2367 16.5305 21.182C17.6374 21.1315 18.2378 20.9468 18.6381 20.791C19.1673 20.5847 19.5459 20.3402 19.943 19.943C20.3196 19.5768 20.6095 19.1301 20.791 18.6381C20.9468 18.2378 21.1315 17.6374 21.182 16.5305C21.2367 15.3338 21.248 14.9748 21.248 11.945C21.248 8.91512 21.2367 8.55612 21.182 7.35945C21.1315 6.25253 20.9468 5.65214 20.791 5.25187C20.5847 4.72266 20.3402 4.34405 19.943 3.94688C19.5767 3.57042 19.1309 3.28068 18.6381 3.0989C18.2378 2.94313 17.6374 2.75847 16.5305 2.70792ZM10.4955 15.4432C11.305 15.7801 12.2063 15.8256 13.0456 15.5718C13.8849 15.318 14.61 14.7808 15.0972 14.0518C15.5843 13.3227 15.8032 12.4472 15.7166 11.5747C15.6299 10.7022 15.243 9.88687 14.622 9.26793C14.2261 8.87228 13.7474 8.56934 13.2204 8.3809C12.6933 8.19246 12.1311 8.12322 11.5741 8.17815C11.0171 8.23309 10.4792 8.41085 9.99914 8.69862C9.51908 8.98639 9.1088 9.37702 8.79783 9.84239C8.48686 10.3078 8.28294 10.8363 8.20075 11.3899C8.11856 11.9436 8.16014 12.5085 8.3225 13.0442C8.48486 13.5798 8.76397 14.0728 9.13972 14.4876C9.51548 14.9024 9.97853 15.2288 10.4955 15.4432ZM7.82058 7.82058C8.3622 7.27896 9.0052 6.84932 9.71286 6.5562C10.4205 6.26308 11.179 6.11221 11.945 6.11221C12.7109 6.11221 13.4694 6.26308 14.1771 6.5562C14.8847 6.84932 15.5277 7.27896 16.0693 7.82058C16.611 8.3622 17.0406 9.0052 17.3337 9.71286C17.6268 10.4205 17.7777 11.179 17.7777 11.945C17.7777 12.7109 17.6268 13.4694 17.3337 14.1771C17.0406 14.8847 16.611 15.5277 16.0693 16.0693C14.9755 17.1632 13.4919 17.7777 11.945 17.7777C10.398 17.7777 8.91444 17.1632 7.82058 16.0693C6.72673 14.9755 6.11221 13.4919 6.11221 11.945C6.11221 10.398 6.72673 8.91444 7.82058 7.82058ZM19.0713 6.98085C19.2055 6.85424 19.313 6.70199 19.3873 6.5331C19.4616 6.36422 19.5013 6.18215 19.504 5.99765C19.5067 5.81316 19.4723 5.63001 19.403 5.45903C19.3336 5.28805 19.2306 5.13273 19.1002 5.00226C18.9697 4.87179 18.8144 4.76883 18.6434 4.69946C18.4724 4.6301 18.2893 4.59574 18.1048 4.59843C17.9203 4.60112 17.7382 4.6408 17.5693 4.71512C17.4004 4.78944 17.2482 4.89689 17.1216 5.03111C16.8753 5.29213 16.7405 5.63885 16.7458 5.99765C16.751 6.35646 16.8959 6.6991 17.1496 6.95284C17.4033 7.20657 17.746 7.35143 18.1048 7.35667C18.4636 7.3619 18.8103 7.22709 19.0713 6.98085Z" fill="url(#paint0_linear_3_32)"/>
<defs>
<linearGradient id="paint0_linear_3_32" x1="11.945" y1="0.597244" x2="11.945" y2="23.2927" gradientUnits="userSpaceOnUse">
<stop stop-color="#285AEB"/>
<stop offset="0.33037" stop-color="#D6249F" stop-opacity="0.813006"/>
<stop offset="0.820238" stop-color="#FD5949" stop-opacity="0.535215"/>
<stop offset="1" stop-color="#F3E877"/>
</linearGradient>
</defs>
</svg>
