<svg width="105" height="69" viewBox="0 0 105 69" fill="none" xmlns="http://www.w3.org/2000/svg">
<g clip-path="url(#clip0_2_4)">
<path d="M72.3957 0C78.8395 0 82.5105 0.269328 83.4915 0.430838C86.0937 0.859057 89.0744 1.92589 92.3406 3.85004C94.1569 4.91993 96.0391 6.65158 98.0466 8.93105C101.644 13.3892 103.436 18.4483 103.436 24.1191C103.436 27.4431 102.789 30.5738 101.507 33.522C98.9888 39.2621 94.7752 43.2933 89.039 45.9539C86.3094 47.2193 82.2428 48.1836 76.684 48.1836H56.3081L55.2419 48.1845V38.5428H77.7052C80.0995 38.5428 81.9656 38.517 83.2645 38.0822C86.7412 36.9189 89.2888 35.1554 90.9112 32.831C92.8737 29.8815 93.8605 27.0123 93.8605 24.2212C93.8605 21.4088 93.01 18.6413 91.3076 15.9074C90.2414 14.3425 88.9914 13.2394 87.7799 12.3232C85.3567 10.4903 82.0726 9.64082 77.7052 9.64082H55.2419V0H72.3957V0Z" fill="black"/>
<path d="M1.56392 19.3733H9.41451C10.4357 15.5394 12.2062 12.012 14.7363 8.76779C17.1071 6.13606 19.0696 4.42318 20.6462 3.61782C22.3708 2.54094 24.277 1.67839 26.3644 1.06596C28.5767 0.350956 31.5949 0 35.4069 0H49.4289V9.64082H34.9756C30.7671 9.64082 27.5218 10.4575 25.2297 12.0918C24.504 12.4319 23.3357 13.4865 21.7469 15.2902C19.6372 17.9669 18.5819 20.9046 18.5819 24.092C18.5819 27.279 19.6372 30.2167 21.7469 32.8934C23.3357 34.6975 24.504 35.7521 25.2297 36.0926C27.5218 37.726 30.7671 38.5428 34.9756 38.5428H49.4289V48.1836H35.4069C31.5949 48.1836 28.5767 47.8326 26.3644 47.1181C24.277 46.5279 22.3708 45.6662 20.6462 44.5658C19.0696 43.7604 17.1071 42.0589 14.7363 39.4503C12.2062 36.1834 10.4357 32.6446 9.41451 28.8103H1.56392V19.3733Z" fill="black"/>
<path d="M0 67.2553V57.0094H0.94656H2.33147C4.16608 57.0094 5.60644 57.4573 6.6543 58.3526C7.70215 59.2479 8.22607 60.4753 8.22607 62.0354C8.22607 63.6575 7.72092 64.9339 6.71193 65.8615C5.70337 66.7912 4.31628 67.2553 2.55501 67.2553H0.94656H0H0ZM1.89749 65.497H2.55981C3.76222 65.497 4.69001 65.2036 5.34579 64.62C6.00114 64.0338 6.32903 63.2053 6.32903 62.1345C6.32903 61.0616 5.9828 60.2309 5.28816 59.6447C4.5957 59.061 3.60985 58.7677 2.33584 58.7677H1.89749V65.497Z" fill="black"/>
<path d="M15.4287 67.463C13.9469 67.463 12.6842 66.9436 11.6412 65.9077C10.5977 64.8693 10.0764 63.6139 10.0764 62.1393C10.0764 60.6622 10.5977 59.4046 11.6412 58.3687C12.6842 57.3324 13.9469 56.8156 15.4287 56.8156C16.9154 56.8156 18.1802 57.3324 19.2211 58.3687C20.262 59.4046 20.7815 60.6622 20.7815 62.1393C20.7815 63.6139 20.262 64.8693 19.2211 65.9077C18.1802 66.9436 16.9154 67.463 15.4287 67.463ZM15.4287 65.7043C16.3936 65.7043 17.2105 65.3582 17.8798 64.6685C18.5492 63.9762 18.884 63.1337 18.884 62.1393C18.884 61.1423 18.5492 60.2999 17.8798 59.6102C17.2105 58.92 16.3936 58.5739 15.4287 58.5739C14.4638 58.5739 13.647 58.92 12.9776 59.6102C12.3083 60.2999 11.9734 61.1423 11.9734 62.1393C11.9734 63.1337 12.3083 63.9762 12.9776 64.6685C13.647 65.3582 14.4638 65.7043 15.4287 65.7043Z" fill="black"/>
<path d="M24.9118 67.2553H23.9631H23.0143V57.0094H24.1063H25.1956L29.4542 64.4978V57.0094H30.4025H31.3513V67.2553H30.3082H29.2578L24.9118 59.7071V67.2553Z" fill="black"/>
<path d="M34.0875 67.2553V57.0094H35.0362H35.9845V67.2553H35.0362H34.0875Z" fill="black"/>
<path d="M41.112 63.4406L37.7445 57.0094H38.7714H39.7987L42.0678 61.77L42.0743 61.7862L44.325 57.0094H45.3497H46.3771L43.0095 63.4406V67.2553H42.0608H41.112V63.4406Z" fill="black"/>
<path d="M52.9536 67.463C51.4718 67.463 50.2091 66.9436 49.1661 65.9077C48.1226 64.8693 47.6013 63.6139 47.6013 62.1393C47.6013 60.6622 48.1226 59.4046 49.1661 58.3687C50.2091 57.3324 51.4718 56.8156 52.9536 56.8156C54.4403 56.8156 55.7051 57.3324 56.746 58.3687C57.7868 59.4046 58.3064 60.6622 58.3064 62.1393C58.3064 63.6139 57.7868 64.8693 56.746 65.9077C55.7051 66.9436 54.4403 67.463 52.9536 67.463ZM52.9536 65.7043C53.9185 65.7043 54.7354 65.3582 55.4047 64.6685C56.074 63.9762 56.4089 63.1337 56.4089 62.1393C56.4089 61.1423 56.074 60.2999 55.4047 59.6102C54.7354 58.92 53.9185 58.5739 52.9536 58.5739C51.9887 58.5739 51.1718 58.92 50.5025 59.6102C49.8332 60.2999 49.4983 61.1423 49.4983 62.1393C49.4983 63.1337 49.8332 63.9762 50.5025 64.6685C51.1718 65.3582 51.9887 65.7043 52.9536 65.7043Z" fill="black"/>
<path d="M60.4563 67.2553V57.0094H61.4024H63.4614C64.6778 57.0094 65.6217 57.2862 66.2937 57.8379C66.963 58.3892 67.2974 59.1671 67.2974 60.1685C67.2974 61.2947 66.9582 62.1485 66.2775 62.7256C65.8527 63.0761 65.3034 63.3253 64.6271 63.4755L67.3991 67.2553H66.2819H65.1602L62.3537 63.1638V67.2553H61.405H60.4563ZM62.3537 61.9246H63.3208C64.0133 61.9246 64.5324 61.7932 64.8786 61.5321C65.227 61.2694 65.4004 60.8769 65.4004 60.3531C65.4004 59.8245 65.227 59.4277 64.8786 59.1649C64.5324 58.8995 64.0133 58.7677 63.3208 58.7677H62.3537V61.9246Z" fill="black"/>
<path d="M68.3972 69V68.3077H75.3213V69H68.3972Z" fill="black"/>
<path d="M79.1814 67.2553L76.2133 57.0094H77.1734H78.1431L79.9734 64.2324H79.9686L81.6835 57.0094H82.3874H83.096L84.8201 64.2324H84.8179L86.639 57.0094H87.5991H88.5688L85.6051 67.2553H84.8481H84.084L82.3874 60.3902H82.383L80.7025 67.2553H79.9454H79.1814Z" fill="black"/>
<path d="M90.2179 67.2553V57.0094H95.7296V57.8842V58.7677H92.1149V61.3017H95.5632V62.176V63.0599H92.1149V65.497H95.7296V66.3713V67.2553H90.2179Z" fill="black"/>
<path d="M98.3387 67.2553V57.0094H99.2853H100.908C101.972 57.0094 102.821 57.2517 103.454 57.734C104.088 58.2186 104.404 58.8646 104.404 59.6791C104.404 60.457 104.086 61.0777 103.451 61.5417L103.262 61.671C103.509 61.7792 103.737 61.9084 103.945 62.0629C104.649 62.5802 105 63.2769 105 64.149C105 65.0954 104.659 65.8475 103.973 66.4106C103.29 66.9737 102.373 67.2553 101.231 67.2553H99.2853H98.3387ZM100.236 58.7677V61.0109H100.912C101.443 61.0109 101.842 60.9184 102.108 60.7316C102.373 60.5447 102.507 60.2654 102.507 59.8917C102.507 59.5203 102.373 59.2387 102.108 59.0514C101.842 58.8624 101.443 58.7677 100.912 58.7677H100.236ZM100.236 62.7692V65.497H101.233C101.854 65.497 102.321 65.3839 102.634 65.1552C102.946 64.9269 103.103 64.5877 103.103 64.1355C103.103 63.6807 102.934 63.3393 102.6 63.1106C102.265 62.8823 101.762 62.7692 101.092 62.7692H100.236Z" fill="black"/>
</g>
<defs>
<clipPath id="clip0_2_4">
<rect width="105" height="69" fill="white"/>
</clipPath>
</defs>
</svg>
