<svg width="26" height="13" viewBox="0 0 26 13" fill="none" xmlns="http://www.w3.org/2000/svg">
<path d="M17.967 0C19.5964 0 20.5247 0.0681054 20.7728 0.108946C21.4308 0.217231 22.1845 0.487003 23.0105 0.973564C23.4698 1.24411 23.9457 1.68199 24.4534 2.2584C25.363 3.38573 25.8161 4.66505 25.8161 6.09902C25.8161 6.93957 25.6527 7.73123 25.3284 8.47674C24.6916 9.92826 23.6261 10.9476 22.1756 11.6204C21.4853 11.9404 20.457 12.1842 19.0514 12.1842H13.8989L13.6293 12.1845V9.74635H19.3096C19.9151 9.74635 20.3869 9.73984 20.7154 9.6299C21.5945 9.33573 22.2387 8.88979 22.649 8.30201C23.1453 7.55616 23.3948 6.83062 23.3948 6.12485C23.3948 5.41366 23.1797 4.71384 22.7493 4.02252C22.4796 3.6268 22.1636 3.34787 21.8572 3.11618C21.2444 2.65269 20.414 2.43788 19.3096 2.43788H13.6293V0H17.967V0Z" fill="black"/>
<path d="M0.0556641 4.89895H2.04085C2.29909 3.92947 2.74678 3.03748 3.38658 2.21712C3.98607 1.55163 4.48234 1.1185 4.88101 0.914841C5.31711 0.64253 5.79914 0.424417 6.32699 0.269551C6.88641 0.0887467 7.64964 0 8.61358 0H12.1593V2.43788H8.5045C7.44031 2.43788 6.61967 2.64441 6.04004 3.05768C5.85655 3.14366 5.56111 3.41034 5.15935 3.86644C4.62587 4.5433 4.35902 5.28617 4.35902 6.09217C4.35902 6.89807 4.62587 7.64093 5.15935 8.31779C5.56111 8.774 5.85655 9.04068 6.04004 9.12678C6.61967 9.53983 7.44031 9.74635 8.5045 9.74635H12.1593V12.1842H8.61358C7.64964 12.1842 6.88641 12.0955 6.32699 11.9148C5.79914 11.7656 5.31711 11.5477 4.88101 11.2694C4.48234 11.0657 3.98607 10.6355 3.38658 9.97583C2.74678 9.14974 2.29909 8.25488 2.04085 7.28529H0.0556641V4.89895V4.89895Z" fill="black"/>
</svg>
