<svg width="24" height="24" viewBox="0 0 24 24" fill="none" xmlns="http://www.w3.org/2000/svg">
<mask id="mask0_3_41" style="mask-type:alpha" maskUnits="userSpaceOnUse" x="0" y="0" width="24" height="24">
<rect x="0.210144" width="23.2927" height="23.2927" fill="#D9D9D9"/>
</mask>
<g mask="url(#mask0_3_41)">
</g>
<g clip-path="url(#clip0_3_41)">
<path fill-rule="evenodd" clip-rule="evenodd" d="M22.9056 11.3477C22.9056 17.6145 17.8246 22.6954 11.5579 22.6954C5.29108 22.6954 0.210144 17.6145 0.210144 11.3477C0.210144 5.08094 5.29108 0 11.5579 0C17.8246 0 22.9056 5.08094 22.9056 11.3477ZM11.9645 8.37745C10.8609 8.83609 8.65474 9.78646 5.34688 11.2276C4.80975 11.4413 4.52795 11.6503 4.50242 11.8546C4.45892 12.2007 4.89202 12.3369 5.48021 12.5213C5.56059 12.5468 5.64381 12.5723 5.72892 12.6007C6.3086 12.7889 7.08781 13.0092 7.49254 13.0177C7.8604 13.0253 8.27081 12.874 8.72377 12.5638C11.8141 10.4768 13.4094 9.42239 13.5097 9.39969C13.5806 9.38362 13.6789 9.36281 13.7451 9.42239C13.8113 9.48102 13.8047 9.5926 13.7981 9.62286C13.7546 9.80537 12.0581 11.3837 11.1787 12.2007C10.9044 12.4551 10.7106 12.6357 10.6708 12.6773C10.582 12.769 10.4912 12.857 10.4042 12.9411C9.86516 13.4593 9.46232 13.8489 10.4269 14.4844C10.8902 14.7899 11.2609 15.0423 11.6307 15.2939C12.0345 15.5691 12.4373 15.8433 12.9593 16.1856C13.0917 16.2726 13.2184 16.3625 13.3423 16.4504C13.8123 16.7861 14.235 17.0868 14.757 17.0395C15.0596 17.0112 15.3735 16.7265 15.5324 15.8764C15.9078 13.866 16.6473 9.51222 16.8185 7.71739C16.8289 7.56837 16.8225 7.41865 16.7996 7.27105C16.7858 7.15183 16.7277 7.04214 16.6369 6.96372C16.5017 6.85308 16.2918 6.82943 16.1972 6.83133C15.7707 6.83889 15.1163 7.06679 11.9645 8.37745Z" fill="#29A0DC"/>
</g>
<defs>
<clipPath id="clip0_3_41">
<rect width="22.6954" height="22.6954" fill="white" transform="translate(0.210144)"/>
</clipPath>
</defs>
</svg>
