<svg width="24" height="24" viewBox="0 0 24 24" fill="none" xmlns="http://www.w3.org/2000/svg">
<mask id="mask0_3_52" style="mask-type:alpha" maskUnits="userSpaceOnUse" x="0" y="0" width="24" height="24">
<rect x="0.630432" width="23.2927" height="23.2927" fill="#D9D9D9"/>
</mask>
<g mask="url(#mask0_3_52)">
</g>
<path d="M16.8219 8.92159C18.2811 9.93397 20.0688 10.5296 21.9995 10.5296V6.92392C21.634 6.92399 21.2696 6.88697 20.9121 6.81346V9.65169C18.9816 9.65169 17.1941 9.0561 15.7346 8.04379V15.4021C15.7346 19.0832 12.6599 22.067 8.86743 22.067C7.45235 22.067 6.13704 21.6518 5.04446 20.9397C6.2915 22.1772 8.03056 22.9448 9.95446 22.9448C13.7473 22.9448 16.822 19.961 16.822 16.2798V8.92159H16.8219V8.92159ZM18.1633 5.28386C17.4175 4.49314 16.9278 3.47128 16.8219 2.34154V1.8778H15.7915C16.0509 3.31364 16.9356 4.54033 18.1632 5.28386H18.1633ZM7.44321 18.115C7.02657 17.5848 6.80134 16.9362 6.80235 16.2693C6.80235 14.5858 8.20868 13.2207 9.94376 13.2207C10.2671 13.2205 10.5885 13.2687 10.8967 13.3635V9.67718C10.5365 9.62931 10.1731 9.6089 9.80978 9.61641V12.4857C9.50144 12.3908 9.17987 12.3426 8.85642 12.3429C7.12142 12.3429 5.71517 13.7078 5.71517 15.3916C5.71517 16.5821 6.41806 17.6129 7.44321 18.115Z" fill="#FF004F"/>
<path d="M15.7346 8.04372C17.1942 9.05602 18.9815 9.65161 20.9121 9.65161V6.81339C19.8345 6.59058 18.8805 6.04407 18.1632 5.28386C16.9355 4.54026 16.0509 3.31357 15.7915 1.8778H13.085V16.2797C13.0788 17.9587 11.6749 19.3181 9.94361 19.3181C8.92345 19.3181 8.01705 18.8462 7.44306 18.1149C6.41806 17.6129 5.71509 16.5821 5.71509 15.3916C5.71509 13.708 7.12134 12.343 8.85634 12.343C9.18876 12.343 9.50916 12.3932 9.8097 12.4857V9.61649C6.08376 9.69121 3.08728 12.6459 3.08728 16.2798C3.08728 18.0938 3.83345 19.7382 5.04455 20.9398C6.13712 21.6518 7.45236 22.0671 8.86751 22.0671C12.6601 22.0671 15.7347 19.0831 15.7347 15.4021V8.04379H15.7346V8.04372Z" fill="black"/>
<path d="M20.9121 6.81331V6.04604C19.9403 6.04747 18.9877 5.78334 18.1632 5.28386C18.893 6.05933 19.8541 6.59409 20.9121 6.81346V6.81331ZM15.7914 1.87772C15.7667 1.74054 15.7477 1.60243 15.7345 1.46374V1H11.9975V15.402C11.9916 17.0809 10.5877 18.4403 8.85625 18.4403C8.36541 18.441 7.88128 18.3296 7.44297 18.1151C8.01695 18.8462 8.92336 19.318 9.94352 19.318C11.6748 19.318 13.0788 17.9587 13.0849 16.2798V1.8778H15.7914V1.87772ZM9.80984 9.61641V8.79946C9.49757 8.75801 9.18275 8.73727 8.86758 8.7374C5.07461 8.7374 2 11.7214 2 15.402C2 17.7097 3.20836 19.7434 5.04461 20.9397C3.83352 19.7382 3.08734 18.0936 3.08734 16.2797C3.08734 12.6459 6.08375 9.69121 9.80984 9.61649V9.61641Z" fill="#00F2EA"/>
</svg>
